<?xml version="1.0" standalone="no"?><?xml-stylesheet type="text/css" href="https://www.processon.com/themes/default/mind/icons/icons.css" ?><!DOCTYPE svg PUBLIC "-//W3C//DTD SVG 1.1//EN" "http://www.w3.org/Graphics/SVG/1.1/DTD/svg11.dtd"><svg xmlns="http://www.w3.org/2000/svg" xlink="http://www.w3.org/1999/xlink" id="mind-svg-con" version="1.1" width="1088.140625px" height="2422px" style="position: absolute; left: 0px; top: 0px; width: 1088.140625px; height: 2422px; background-color: rgb(252, 245, 239); z-index: 999;"><defs></defs><g id="svgbackgroundid"><defs></defs><rect x="0" y="0" width="1088.140625" height="2422" fill="#fcf5ef"></rect></g><g transform="translate(-9898, -8789)" id="sdjakdjak5"><defs></defs><g class="svg-topic-con" transform="translate(0.5,0.5)"><path part="right" sub="true" id="line_2bf2297b767afaa34cc9" d="M 10000 10000 C 10000 10000 10010 8858 10152 8858" stroke="rgb(170,170,170)" fill="none" stroke-width="2"></path><path part="right" sub="true" id="line_6ac359b05cbde715ab88" d="M 10000 10000 C 10000 10000 10010 9383 10152 9383" stroke="rgb(170,170,170)" fill="none" stroke-width="2"></path><path part="right" sub="true" id="line_e63ff8d0da2b4e008a31" d="M 10000 10000 C 10000 10000 10010 10103 10152 10103" stroke="rgb(170,170,170)" fill="none" stroke-width="2"></path><path part="right" sub="true" id="line_1e377363a2ca5f1b60ef" d="M 10000 10000 C 10000 10000 10010 10775 10152 10775" stroke="rgb(170,170,170)" fill="none" stroke-width="2"></path></g><g class="svg-connection-con" transform="translate(0.5,0.5)"></g><g class="svg-freesums-con" transform="translate(0.5,0.5)"></g><g class="svg-freebos-con" transform="translate(0.5,0.5)"></g></g><g id="1e377363a2ca5f1b60ef"><rect x="254" y="1960.640625" rx="5px" ry="5px" width="265" height="50" style="fill: #ffffff; stroke:rgb(187,187,187);stroke-width:1px;"></rect><g><text text-anchor="start" align="top" anchor="start" font-size="17px" font-weight="normal" fill="rgb(68, 68, 68)" style="font-size:17px;font-family:微软雅黑;color:rgb(68,68,68);font-style:normal;text-align:left;font-weight:normal;"><tspan x="265" y="1993.040625"><tspan>第 3 部分：程序间的交互和通信</tspan></tspan></text></g></g><g id="bd66f5a354ffa1a75d06"><rect x="546.53125" y="1702.140625" rx="5px" ry="5px" width="146" height="29" style="fill: #ffffff; stroke:rgb(187,187,187);stroke-width:1px;"></rect><g><text text-anchor="start" align="top" anchor="start" font-size="14px" font-weight="normal" fill="rgb(68, 68, 68)" style="font-size:14px;font-family:微软雅黑;color:rgb(68,68,68);font-style:normal;text-align:left;font-weight:normal;"><tspan x="556.53125" y="1722.9406250000002"><tspan>第 10 章：系统级 IO</tspan></tspan></text></g></g><g id="b7c15daa593e8d3c8dc6"><rect x="720.59375" y="1579" rx="5px" ry="5px" width="85" height="29" style="fill: #ffffff; stroke:rgb(187,187,187);stroke-width:1px;"></rect><g><text text-anchor="start" align="top" anchor="start" font-size="14px" font-weight="normal" fill="rgb(68, 68, 68)" style="font-size:14px;font-family:微软雅黑;color:rgb(68,68,68);font-style:normal;text-align:left;font-weight:normal;"><tspan x="730.59375" y="1599.8000000000002"><tspan>文件和 FD</tspan></tspan></text></g></g><g id="f0c2e8f5376b9d39a504"><rect x="720.59375" y="1628" rx="5px" ry="5px" width="76" height="29" style="fill: #ffffff; stroke:rgb(187,187,187);stroke-width:1px;"></rect><g><text text-anchor="start" align="top" anchor="start" font-size="14px" font-weight="normal" fill="rgb(68, 68, 68)" style="font-size:14px;font-family:微软雅黑;color:rgb(68,68,68);font-style:normal;text-align:left;font-weight:normal;"><tspan x="730.59375" y="1648.8000000000002"><tspan>共享文件</tspan></tspan></text></g></g><g id="68bb29632fc98e2b3079"><rect x="720.59375" y="1677" rx="5px" ry="5px" width="126" height="29" style="fill: #ffffff; stroke:rgb(187,187,187);stroke-width:1px;"></rect><g><text text-anchor="start" align="top" anchor="start" font-size="14px" font-weight="normal" fill="rgb(68, 68, 68)" style="font-size:14px;font-family:微软雅黑;color:rgb(68,68,68);font-style:normal;text-align:left;font-weight:normal;"><tspan x="730.59375" y="1697.8000000000002"><tspan> IO 重定向</tspan></tspan></text></g></g><g id="153672b18f88be53e018"><rect x="720.59375" y="1726" rx="5px" ry="5px" width="114" height="29" style="fill: #ffffff; stroke:rgb(187,187,187);stroke-width:1px;"></rect><g><text text-anchor="start" align="top" anchor="start" font-size="14px" font-weight="normal" fill="rgb(68, 68, 68)" style="font-size:14px;font-family:微软雅黑;color:rgb(68,68,68);font-style:normal;text-align:left;font-weight:normal;"><tspan x="730.59375" y="1746.8000000000002"><tspan>文件 metadata</tspan></tspan></text></g></g><g id="141d080ce4b26b4b56bb"><rect x="720.59375" y="1775" rx="5px" ry="5px" width="139" height="29" style="fill: #ffffff; stroke:rgb(187,187,187);stroke-width:1px;"></rect><g><text text-anchor="start" align="top" anchor="start" font-size="14px" font-weight="normal" fill="rgb(68, 68, 68)" style="font-size:14px;font-family:微软雅黑;color:rgb(68,68,68);font-style:normal;text-align:left;font-weight:normal;"><tspan x="730.59375" y="1795.8000000000002"><tspan>C stdio 与Linux IO</tspan></tspan></text></g></g><g id="1f2864605f520e98d0b1"><rect x="720.59375" y="1824" rx="5px" ry="5px" width="239" height="29" style="fill: #ffffff; stroke:rgb(187,187,187);stroke-width:1px;"></rect><g><text text-anchor="start" align="top" anchor="start" font-size="14px" font-weight="normal" fill="rgb(68, 68, 68)" style="font-size:14px;font-family:微软雅黑;color:rgb(68,68,68);font-style:normal;text-align:left;font-weight:normal;"><tspan x="730.59375" y="1844.8000000000002"><tspan>stdio 的局限性使之不适合网络编程</tspan></tspan></text></g></g><g id="c89c02f143fbd9ec0e7a"><rect x="546.53125" y="1971.140625" rx="5px" ry="5px" width="139" height="29" style="fill: #ffffff; stroke:rgb(187,187,187);stroke-width:1px;"></rect><g><text text-anchor="start" align="top" anchor="start" font-size="14px" font-weight="normal" fill="rgb(68, 68, 68)" style="font-size:14px;font-family:微软雅黑;color:rgb(68,68,68);font-style:normal;text-align:left;font-weight:normal;"><tspan x="556.53125" y="1991.9406250000002"><tspan>第 11 章：网络编程</tspan></tspan></text></g></g><g id="89381ddb1f460d444b99"><rect x="713.09375" y="1873" rx="5px" ry="5px" width="155" height="29" style="fill: #ffffff; stroke:rgb(187,187,187);stroke-width:1px;"></rect><g><text text-anchor="start" align="top" anchor="start" font-size="14px" font-weight="normal" fill="rgb(68, 68, 68)" style="font-size:14px;font-family:微软雅黑;color:rgb(68,68,68);font-style:normal;text-align:left;font-weight:normal;"><tspan x="723.09375" y="1893.8000000000002"><tspan>网络是有趣的 IO 设备</tspan></tspan></text></g></g><g id="e507c7e1ba6a841ef43f"><rect x="713.09375" y="1922" rx="5px" ry="5px" width="196" height="29" style="fill: #ffffff; stroke:rgb(187,187,187);stroke-width:1px;"></rect><g><text text-anchor="start" align="top" anchor="start" font-size="14px" font-weight="normal" fill="rgb(68, 68, 68)" style="font-size:14px;font-family:微软雅黑;color:rgb(68,68,68);font-style:normal;text-align:left;font-weight:normal;"><tspan x="723.09375" y="1942.8000000000002"><tspan>编写一个简单的 web 服务器</tspan></tspan></text></g></g><g id="ec8722a03146835b423b"><rect x="713.09375" y="1971" rx="5px" ry="5px" width="80" height="29" style="fill: #ffffff; stroke:rgb(187,187,187);stroke-width:1px;"></rect><g><text text-anchor="start" align="top" anchor="start" font-size="14px" font-weight="normal" fill="rgb(68, 68, 68)" style="font-size:14px;font-family:微软雅黑;color:rgb(68,68,68);font-style:normal;text-align:left;font-weight:normal;"><tspan x="723.09375" y="1991.8000000000002"><tspan>C-S 模型</tspan></tspan></text></g></g><g id="80fa3d187f6b86998830"><rect x="713.09375" y="2020" rx="5px" ry="5px" width="63" height="29" style="fill: #ffffff; stroke:rgb(187,187,187);stroke-width:1px;"></rect><g><text text-anchor="start" align="top" anchor="start" font-size="14px" font-weight="normal" fill="rgb(68, 68, 68)" style="font-size:14px;font-family:微软雅黑;color:rgb(68,68,68);font-style:normal;text-align:left;font-weight:normal;"><tspan x="723.09375" y="2040.8000000000002"><tspan>socket</tspan></tspan></text></g></g><g id="de2000d3f8b8e31a3f55"><rect x="713.09375" y="2069" rx="5px" ry="5px" width="56" height="29" style="fill: #ffffff; stroke:rgb(187,187,187);stroke-width:1px;"></rect><g><text text-anchor="start" align="top" anchor="start" font-size="14px" font-weight="normal" fill="rgb(68, 68, 68)" style="font-size:14px;font-family:微软雅黑;color:rgb(68,68,68);font-style:normal;text-align:left;font-weight:normal;"><tspan x="723.09375" y="2089.8"><tspan>HTTP</tspan></tspan></text></g></g><g id="a7e3b465c702eb60f236"><rect x="546.53125" y="2241.140625" rx="5px" ry="5px" width="141" height="29" style="fill: #ffffff; stroke:rgb(187,187,187);stroke-width:1px;"></rect><g><text text-anchor="start" align="top" anchor="start" font-size="14px" font-weight="normal" fill="rgb(68, 68, 68)" style="font-size:14px;font-family:微软雅黑;color:rgb(68,68,68);font-style:normal;text-align:left;font-weight:normal;"><tspan x="556.53125" y="2261.940625"><tspan>第 12 章：并发编程</tspan></tspan></text></g></g><g id="f6aa0e41b86ea3d03557"><rect x="715.875" y="2118" rx="5px" ry="5px" width="261" height="29" style="fill: #ffffff; stroke:rgb(187,187,187);stroke-width:1px;"></rect><g><text text-anchor="start" align="top" anchor="start" font-size="14px" font-weight="normal" fill="rgb(68, 68, 68)" style="font-size:14px;font-family:微软雅黑;color:rgb(68,68,68);font-style:normal;text-align:left;font-weight:normal;"><tspan x="725.875" y="2138.8"><tspan>通过 Internet 服务器设计介绍并发编程</tspan></tspan></text></g></g><g id="2cccb95f2987c5ed1355"><rect x="715.875" y="2216.140625" rx="5px" ry="5px" width="90" height="29" style="fill: #ffffff; stroke:rgb(187,187,187);stroke-width:1px;"></rect><g><text text-anchor="start" align="top" anchor="start" font-size="14px" font-weight="normal" fill="rgb(68, 68, 68)" style="font-size:14px;font-family:微软雅黑;color:rgb(68,68,68);font-style:normal;text-align:left;font-weight:normal;"><tspan x="725.875" y="2236.940625"><tspan>并发的机制</tspan></tspan></text></g></g><g id="e7afc576d13f6d74d03e"><rect x="833.875" y="2167" rx="5px" ry="5px" width="50" height="29" style="fill: #ffffff; stroke:rgb(187,187,187);stroke-width:1px;"></rect><g><text text-anchor="start" align="top" anchor="start" font-size="14px" font-weight="normal" fill="rgb(68, 68, 68)" style="font-size:14px;font-family:微软雅黑;color:rgb(68,68,68);font-style:normal;text-align:left;font-weight:normal;"><tspan x="843.875" y="2187.8"><tspan>进程</tspan></tspan></text></g></g><g id="3222f194dfff5186f3ac"><rect x="833.875" y="2216" rx="5px" ry="5px" width="50" height="29" style="fill: #ffffff; stroke:rgb(187,187,187);stroke-width:1px;"></rect><g><text text-anchor="start" align="top" anchor="start" font-size="14px" font-weight="normal" fill="rgb(68, 68, 68)" style="font-size:14px;font-family:微软雅黑;color:rgb(68,68,68);font-style:normal;text-align:left;font-weight:normal;"><tspan x="843.875" y="2236.8"><tspan>线程</tspan></tspan></text></g></g><g id="3ce166fdee83f3ce70b1"><rect x="833.875" y="2265" rx="5px" ry="5px" width="95" height="29" style="fill: #ffffff; stroke:rgb(187,187,187);stroke-width:1px;"></rect><g><text text-anchor="start" align="top" anchor="start" font-size="14px" font-weight="normal" fill="rgb(68, 68, 68)" style="font-size:14px;font-family:微软雅黑;color:rgb(68,68,68);font-style:normal;text-align:left;font-weight:normal;"><tspan x="843.875" y="2285.8"><tspan>IO 多路复用</tspan></tspan></text></g></g><g id="2607ab130dac7128fbf7"><rect x="715.875" y="2314" rx="5px" ry="5px" width="160" height="29" style="fill: #ffffff; stroke:rgb(187,187,187);stroke-width:1px;"></rect><g><text text-anchor="start" align="top" anchor="start" font-size="14px" font-weight="normal" fill="rgb(68, 68, 68)" style="font-size:14px;font-family:微软雅黑;color:rgb(68,68,68);font-style:normal;text-align:left;font-weight:normal;"><tspan x="725.875" y="2334.8"><tspan>信号量实现并发的同步</tspan></tspan></text></g></g><g id="434960f51d704f89e0cc"><rect x="715.875" y="2363" rx="5px" ry="5px" width="174" height="29" style="fill: #ffffff; stroke:rgb(187,187,187);stroke-width:1px;"></rect><g><text text-anchor="start" align="top" anchor="start" font-size="14px" font-weight="normal" fill="rgb(68, 68, 68)" style="font-size:14px;font-family:微软雅黑;color:rgb(68,68,68);font-style:normal;text-align:left;font-weight:normal;"><tspan x="725.875" y="2383.8"><tspan>并发的问题：竞争，死锁</tspan></tspan></text></g></g><g id="e63ff8d0da2b4e008a31"><rect x="254" y="1289.640625" rx="5px" ry="5px" width="248" height="50" style="fill: #ffffff; stroke:rgb(187,187,187);stroke-width:1px;"></rect><g><text text-anchor="start" align="top" anchor="start" font-size="17px" font-weight="normal" fill="rgb(68, 68, 68)" style="font-size:17px;font-family:微软雅黑;color:rgb(68,68,68);font-style:normal;text-align:left;font-weight:normal;"><tspan x="265" y="1322.040625"><tspan>第 2 部分：在系统上运行程序</tspan></tspan></text></g></g><g id="eb80ff96ce9d2779ca21"><rect x="529.53125" y="1104.140625" rx="5px" ry="5px" width="107" height="29" style="fill: #ffffff; stroke:rgb(187,187,187);stroke-width:1px;"></rect><g><text text-anchor="start" align="top" anchor="start" font-size="14px" font-weight="normal" fill="rgb(68, 68, 68)" style="font-size:14px;font-family:微软雅黑;color:rgb(68,68,68);font-style:normal;text-align:left;font-weight:normal;"><tspan x="539.53125" y="1124.9406250000002"><tspan>第 7 章：链接</tspan></tspan></text></g></g><g id="1aa493fa4e83f98374a3"><rect x="664.515625" y="1079" rx="5px" ry="5px" width="118" height="29" style="fill: #ffffff; stroke:rgb(187,187,187);stroke-width:1px;"></rect><g><text text-anchor="start" align="top" anchor="start" font-size="14px" font-weight="normal" fill="rgb(68, 68, 68)" style="font-size:14px;font-family:微软雅黑;color:rgb(68,68,68);font-style:normal;text-align:left;font-weight:normal;"><tspan x="674.515625" y="1099.8000000000002"><tspan>静态和动态链接</tspan></tspan></text></g></g><g id="0cf7b2808a6c659ea790"><rect x="664.515625" y="1128" rx="5px" ry="5px" width="370" height="29" style="fill: #ffffff; stroke:rgb(187,187,187);stroke-width:1px;"></rect><g><text text-anchor="start" align="top" anchor="start" font-size="14px" font-weight="normal" fill="rgb(68, 68, 68)" style="font-size:14px;font-family:微软雅黑;color:rgb(68,68,68);font-style:normal;text-align:left;font-weight:normal;"><tspan x="674.515625" y="1148.8000000000002"><tspan>链接生成的目标文件与一些虚拟内存，内存映射概念有关</tspan></tspan></text></g></g><g id="79e8f68485af05bc4fca"><rect x="529.53125" y="1275.140625" rx="5px" ry="5px" width="150" height="29" style="fill: #ffffff; stroke:rgb(187,187,187);stroke-width:1px;"></rect><g><text text-anchor="start" align="top" anchor="start" font-size="14px" font-weight="normal" fill="rgb(68, 68, 68)" style="font-size:14px;font-family:微软雅黑;color:rgb(68,68,68);font-style:normal;text-align:left;font-weight:normal;"><tspan x="539.53125" y="1295.9406250000002"><tspan>第 8 章：异常控制流</tspan></tspan></text></g></g><g id="812cb5da05d22e823f05"><rect x="707.265625" y="1177" rx="5px" ry="5px" width="118" height="29" style="fill: #ffffff; stroke:rgb(187,187,187);stroke-width:1px;"></rect><g><text text-anchor="start" align="top" anchor="start" font-size="14px" font-weight="normal" fill="rgb(68, 68, 68)" style="font-size:14px;font-family:微软雅黑;color:rgb(68,68,68);font-style:normal;text-align:left;font-weight:normal;"><tspan x="717.265625" y="1197.8000000000002"><tspan>硬件异常和中断</tspan></tspan></text></g></g><g id="89c51a39feabb389c56c"><rect x="707.265625" y="1226" rx="5px" ry="5px" width="160" height="29" style="fill: #ffffff; stroke:rgb(187,187,187);stroke-width:1px;"></rect><g><text text-anchor="start" align="top" anchor="start" font-size="14px" font-weight="normal" fill="rgb(68, 68, 68)" style="font-size:14px;font-family:微软雅黑;color:rgb(68,68,68);font-style:normal;text-align:left;font-weight:normal;"><tspan x="717.265625" y="1246.8000000000002"><tspan>并发程序的上下文切换</tspan></tspan></text></g></g><g id="11c4455a73c9512a4aaa"><rect x="707.265625" y="1275" rx="5px" ry="5px" width="199" height="29" style="fill: #ffffff; stroke:rgb(187,187,187);stroke-width:1px;"></rect><g><text text-anchor="start" align="top" anchor="start" font-size="14px" font-weight="normal" fill="rgb(68, 68, 68)" style="font-size:14px;font-family:微软雅黑;color:rgb(68,68,68);font-style:normal;text-align:left;font-weight:normal;"><tspan x="717.265625" y="1295.8000000000002"><tspan>Linux 信号引起的控制流突变</tspan></tspan></text></g></g><g id="8078ed2e990dc7779a12"><rect x="707.265625" y="1324" rx="5px" ry="5px" width="203" height="29" style="fill: #ffffff; stroke:rgb(187,187,187);stroke-width:1px;"></rect><g><text text-anchor="start" align="top" anchor="start" font-size="14px" font-weight="normal" fill="rgb(68, 68, 68)" style="font-size:14px;font-family:微软雅黑;color:rgb(68,68,68);font-style:normal;text-align:left;font-weight:normal;"><tspan x="717.265625" y="1344.8000000000002"><tspan>C 中破坏栈原则的非本地跳转</tspan></tspan></text></g></g><g id="66a4c16ee3b54f4b3854"><rect x="707.265625" y="1373" rx="5px" ry="5px" width="303" height="29" style="fill: #ffffff; stroke:rgb(187,187,187);stroke-width:1px;"></rect><g><text text-anchor="start" align="top" anchor="start" font-size="14px" font-weight="normal" fill="rgb(68, 68, 68)" style="font-size:14px;font-family:微软雅黑;color:rgb(68,68,68);font-style:normal;text-align:left;font-weight:normal;"><tspan x="717.265625" y="1393.8000000000002"><tspan>进程：创建，操纵，多进程，编写 Linux shell</tspan></tspan></text></g></g><g id="578bbc605a854c1ee550"><rect x="529.53125" y="1471.140625" rx="5px" ry="5px" width="136" height="29" style="fill: #ffffff; stroke:rgb(187,187,187);stroke-width:1px;"></rect><g><text text-anchor="start" align="top" anchor="start" font-size="14px" font-weight="normal" fill="rgb(68, 68, 68)" style="font-size:14px;font-family:微软雅黑;color:rgb(68,68,68);font-style:normal;text-align:left;font-weight:normal;"><tspan x="539.53125" y="1491.9406250000002"><tspan>第 9 章：虚拟内存</tspan></tspan></text></g></g><g id="7b21c5db11c4e0ae95d5"><rect x="693.265625" y="1422" rx="5px" ry="5px" width="160" height="29" style="fill: #ffffff; stroke:rgb(187,187,187);stroke-width:1px;"></rect><g><text text-anchor="start" align="top" anchor="start" font-size="14px" font-weight="normal" fill="rgb(68, 68, 68)" style="font-size:14px;font-family:微软雅黑;color:rgb(68,68,68);font-style:normal;text-align:left;font-weight:normal;"><tspan x="703.265625" y="1442.8000000000002"><tspan>进程间的独立内存空间</tspan></tspan></text></g></g><g id="011dc68ed869874241a7"><rect x="693.265625" y="1471" rx="5px" ry="5px" width="76" height="29" style="fill: #ffffff; stroke:rgb(187,187,187);stroke-width:1px;"></rect><g><text text-anchor="start" align="top" anchor="start" font-size="14px" font-weight="normal" fill="rgb(68, 68, 68)" style="font-size:14px;font-family:微软雅黑;color:rgb(68,68,68);font-style:normal;text-align:left;font-weight:normal;"><tspan x="703.265625" y="1491.8000000000002"><tspan>共享内存</tspan></tspan></text></g></g><g id="b241f81c7a0cd26f4d82"><rect x="693.265625" y="1520" rx="5px" ry="5px" width="76" height="29" style="fill: #ffffff; stroke:rgb(187,187,187);stroke-width:1px;"></rect><g><text text-anchor="start" align="top" anchor="start" font-size="14px" font-weight="normal" fill="rgb(68, 68, 68)" style="font-size:14px;font-family:微软雅黑;color:rgb(68,68,68);font-style:normal;text-align:left;font-weight:normal;"><tspan x="703.265625" y="1540.8000000000002"><tspan>内存管理</tspan></tspan></text></g></g><g id="6ac359b05cbde715ab88"><rect x="254" y="568.640625" rx="5px" ry="5px" width="244" height="50" style="fill: #ffffff; stroke:rgb(187,187,187);stroke-width:1px;"></rect><g><text text-anchor="start" align="top" anchor="start" font-size="17px" font-weight="normal" fill="rgb(68, 68, 68)" style="font-size:17px;font-family:微软雅黑;color:rgb(68,68,68);font-style:normal;text-align:left;font-weight:normal;"><tspan x="265" y="601.0406250000001"><tspan>第 1 部分：程序的结构与执行</tspan></tspan></text></g></g><g id="bb717a45ce4097d683a7"><rect x="526.140625" y="212.140625" rx="5px" ry="5px" width="192" height="29" style="fill: #ffffff; stroke:rgb(187,187,187);stroke-width:1px;"></rect><g><text text-anchor="start" align="top" anchor="start" font-size="14px" font-weight="normal" fill="rgb(68, 68, 68)" style="font-size:14px;font-family:微软雅黑;color:rgb(68,68,68);font-style:normal;text-align:left;font-weight:normal;"><tspan x="536.140625" y="232.940625"><tspan>第 2 章：信息的表示和处理</tspan></tspan></text></g></g><g id="e017b32c75e51f960c08"><rect x="745.875" y="138" rx="5px" ry="5px" width="76" height="29" style="fill: #ffffff; stroke:rgb(187,187,187);stroke-width:1px;"></rect><g><text text-anchor="start" align="top" anchor="start" font-size="14px" font-weight="normal" fill="rgb(68, 68, 68)" style="font-size:14px;font-family:微软雅黑;color:rgb(68,68,68);font-style:normal;text-align:left;font-weight:normal;"><tspan x="755.875" y="158.8"><tspan>算术运算</tspan></tspan></text></g></g><g id="4747d0c4024d07d1034b"><rect x="745.875" y="187" rx="5px" ry="5px" width="50" height="29" style="fill: #ffffff; stroke:rgb(187,187,187);stroke-width:1px;"></rect><g><text text-anchor="start" align="top" anchor="start" font-size="14px" font-weight="normal" fill="rgb(68, 68, 68)" style="font-size:14px;font-family:微软雅黑;color:rgb(68,68,68);font-style:normal;text-align:left;font-weight:normal;"><tspan x="755.875" y="207.8"><tspan>补码</tspan></tspan></text></g></g><g id="625f8a47ecc433174ce9"><rect x="745.875" y="236" rx="5px" ry="5px" width="50" height="29" style="fill: #ffffff; stroke:rgb(187,187,187);stroke-width:1px;"></rect><g><text text-anchor="start" align="top" anchor="start" font-size="14px" font-weight="normal" fill="rgb(68, 68, 68)" style="font-size:14px;font-family:微软雅黑;color:rgb(68,68,68);font-style:normal;text-align:left;font-weight:normal;"><tspan x="755.875" y="256.8"><tspan>整数</tspan></tspan></text></g></g><g id="8b63e23a1ed38bd6f28c"><rect x="745.875" y="285" rx="5px" ry="5px" width="62" height="29" style="fill: #ffffff; stroke:rgb(187,187,187);stroke-width:1px;"></rect><g><text text-anchor="start" align="top" anchor="start" font-size="14px" font-weight="normal" fill="rgb(68, 68, 68)" style="font-size:14px;font-family:微软雅黑;color:rgb(68,68,68);font-style:normal;text-align:left;font-weight:normal;"><tspan x="755.875" y="305.79999999999995"><tspan>浮点数</tspan></tspan></text></g></g><g id="6e74e8a8bd1459836d6e"><rect x="526.140625" y="457.140625" rx="5px" ry="5px" width="192" height="29" style="fill: #ffffff; stroke:rgb(187,187,187);stroke-width:1px;"></rect><g><text text-anchor="start" align="top" anchor="start" font-size="14px" font-weight="normal" fill="rgb(68, 68, 68)" style="font-size:14px;font-family:微软雅黑;color:rgb(68,68,68);font-style:normal;text-align:left;font-weight:normal;"><tspan x="536.140625" y="477.94062499999995"><tspan>第 3 章：程序的机器级表示</tspan></tspan></text></g></g><g id="41d772b11329b6389d53"><rect x="745.875" y="334" rx="5px" ry="5px" width="133" height="29" style="fill: #ffffff; stroke:rgb(187,187,187);stroke-width:1px;"></rect><g><text text-anchor="start" align="top" anchor="start" font-size="14px" font-weight="normal" fill="rgb(68, 68, 68)" style="font-size:14px;font-family:微软雅黑;color:rgb(68,68,68);font-style:normal;text-align:left;font-weight:normal;"><tspan x="755.875" y="354.79999999999995"><tspan>C 生成的机器代码</tspan></tspan></text></g></g><g id="1f412e2bc36f32f61b1d"><rect x="745.875" y="383" rx="5px" ry="5px" width="209" height="29" style="fill: #ffffff; stroke:rgb(187,187,187);stroke-width:1px;"></rect><g><text text-anchor="start" align="top" anchor="start" font-size="14px" font-weight="normal" fill="rgb(68, 68, 68)" style="font-size:14px;font-family:微软雅黑;color:rgb(68,68,68);font-style:normal;text-align:left;font-weight:normal;"><tspan x="755.875" y="403.79999999999995"><tspan>if, switch, while 生成的指令码</tspan></tspan></text></g></g><g id="79ed6f4b4d6b769a8d08"><rect x="745.875" y="432" rx="5px" ry="5px" width="202" height="29" style="fill: #ffffff; stroke:rgb(187,187,187);stroke-width:1px;"></rect><g><text text-anchor="start" align="top" anchor="start" font-size="14px" font-weight="normal" fill="rgb(68, 68, 68)" style="font-size:14px;font-family:微软雅黑;color:rgb(68,68,68);font-style:normal;text-align:left;font-weight:normal;"><tspan x="755.875" y="452.79999999999995"><tspan>函数：栈，寄存器，参数传递</tspan></tspan></text></g></g><g id="3f2cb4e19ff41744d7f4"><rect x="745.875" y="481" rx="5px" ry="5px" width="188" height="29" style="fill: #ffffff; stroke:rgb(187,187,187);stroke-width:1px;"></rect><g><text text-anchor="start" align="top" anchor="start" font-size="14px" font-weight="normal" fill="rgb(68, 68, 68)" style="font-size:14px;font-family:微软雅黑;color:rgb(68,68,68);font-style:normal;text-align:left;font-weight:normal;"><tspan x="755.875" y="501.79999999999995"><tspan>结构体，数组的分配和访问</tspan></tspan></text></g></g><g id="1b8be8f1c6eec629f9b2"><rect x="745.875" y="530" rx="5px" ry="5px" width="174" height="29" style="fill: #ffffff; stroke:rgb(187,187,187);stroke-width:1px;"></rect><g><text text-anchor="start" align="top" anchor="start" font-size="14px" font-weight="normal" fill="rgb(68, 68, 68)" style="font-size:14px;font-family:微软雅黑;color:rgb(68,68,68);font-style:normal;text-align:left;font-weight:normal;"><tspan x="755.875" y="550.8"><tspan>整数和浮点数的运算指令</tspan></tspan></text></g></g><g id="ee11a3d4b5a4794c9d2c"><rect x="745.875" y="579" rx="5px" ry="5px" width="160" height="29" style="fill: #ffffff; stroke:rgb(187,187,187);stroke-width:1px;"></rect><g><text text-anchor="start" align="top" anchor="start" font-size="14px" font-weight="normal" fill="rgb(68, 68, 68)" style="font-size:14px;font-family:微软雅黑;color:rgb(68,68,68);font-style:normal;text-align:left;font-weight:normal;"><tspan x="755.875" y="599.8"><tspan>安全漏洞：缓冲区溢出</tspan></tspan></text></g></g><g id="4425af3d05e62c9e972c"><rect x="526.140625" y="677.140625" rx="5px" ry="5px" width="178" height="29" style="fill: #ffffff; stroke:rgb(187,187,187);stroke-width:1px;"></rect><g><text text-anchor="start" align="top" anchor="start" font-size="14px" font-weight="normal" fill="rgb(68, 68, 68)" style="font-size:14px;font-family:微软雅黑;color:rgb(68,68,68);font-style:normal;text-align:left;font-weight:normal;"><tspan x="536.140625" y="697.940625"><tspan>第 4 章：处理器体系结构</tspan></tspan></text></g></g><g id="919acbc1199144c872b4"><rect x="731.875" y="628" rx="5px" ry="5px" width="62" height="29" style="fill: #ffffff; stroke:rgb(187,187,187);stroke-width:1px;"></rect><g><text text-anchor="start" align="top" anchor="start" font-size="14px" font-weight="normal" fill="rgb(68, 68, 68)" style="font-size:14px;font-family:微软雅黑;color:rgb(68,68,68);font-style:normal;text-align:left;font-weight:normal;"><tspan x="741.875" y="648.8"><tspan>指令集</tspan></tspan></text></g></g><g id="c3d6ca5a852dd2476143"><rect x="731.875" y="677" rx="5px" ry="5px" width="62" height="29" style="fill: #ffffff; stroke:rgb(187,187,187);stroke-width:1px;"></rect><g><text text-anchor="start" align="top" anchor="start" font-size="14px" font-weight="normal" fill="rgb(68, 68, 68)" style="font-size:14px;font-family:微软雅黑;color:rgb(68,68,68);font-style:normal;text-align:left;font-weight:normal;"><tspan x="741.875" y="697.8"><tspan>流水线</tspan></tspan></text></g></g><g id="0625336bd4c303afb593"><rect x="731.875" y="726" rx="5px" ry="5px" width="188" height="29" style="fill: #ffffff; stroke:rgb(187,187,187);stroke-width:1px;"></rect><g><text text-anchor="start" align="top" anchor="start" font-size="14px" font-weight="normal" fill="rgb(68, 68, 68)" style="font-size:14px;font-family:微软雅黑;color:rgb(68,68,68);font-style:normal;text-align:left;font-weight:normal;"><tspan x="741.875" y="746.8"><tspan>处理器设计与硬件描述语言</tspan></tspan></text></g></g><g id="d12eb59e52bc1943d364"><rect x="526.140625" y="800.140625" rx="5px" ry="5px" width="164" height="29" style="fill: #ffffff; stroke:rgb(187,187,187);stroke-width:1px;"></rect><g><text text-anchor="start" align="top" anchor="start" font-size="14px" font-weight="normal" fill="rgb(68, 68, 68)" style="font-size:14px;font-family:微软雅黑;color:rgb(68,68,68);font-style:normal;text-align:left;font-weight:normal;"><tspan x="536.140625" y="820.940625"><tspan>第 5 章：优化程序性能</tspan></tspan></text></g></g><g id="b5d88ee57e40ab020311"><rect x="717.875" y="775" rx="5px" ry="5px" width="202" height="29" style="fill: #ffffff; stroke:rgb(187,187,187);stroke-width:1px;"></rect><g><text text-anchor="start" align="top" anchor="start" font-size="14px" font-weight="normal" fill="rgb(68, 68, 68)" style="font-size:14px;font-family:微软雅黑;color:rgb(68,68,68);font-style:normal;text-align:left;font-weight:normal;"><tspan x="727.875" y="795.8"><tspan>减少程序需要做的工作的变换</tspan></tspan></text></g></g><g id="8f6d46705a384ef1ecf4"><rect x="717.875" y="824" rx="5px" ry="5px" width="258" height="29" style="fill: #ffffff; stroke:rgb(187,187,187);stroke-width:1px;"></rect><g><text text-anchor="start" align="top" anchor="start" font-size="14px" font-weight="normal" fill="rgb(68, 68, 68)" style="font-size:14px;font-family:微软雅黑;color:rgb(68,68,68);font-style:normal;text-align:left;font-weight:normal;"><tspan x="727.875" y="844.8"><tspan>增加生成的机器代码中的指令集并行度</tspan></tspan></text></g></g><g id="ca8741211f33d828947b"><rect x="526.140625" y="947.140625" rx="5px" ry="5px" width="178" height="29" style="fill: #ffffff; stroke:rgb(187,187,187);stroke-width:1px;"></rect><g><text text-anchor="start" align="top" anchor="start" font-size="14px" font-weight="normal" fill="rgb(68, 68, 68)" style="font-size:14px;font-family:微软雅黑;color:rgb(68,68,68);font-style:normal;text-align:left;font-weight:normal;"><tspan x="536.140625" y="967.940625"><tspan>第 6 章：存储器层次结构</tspan></tspan></text></g></g><g id="04624088d9410275f933"><rect x="731.875" y="873" rx="5px" ry="5px" width="326" height="29" style="fill: #ffffff; stroke:rgb(187,187,187);stroke-width:1px;"></rect><g><text text-anchor="start" align="top" anchor="start" font-size="14px" font-weight="normal" fill="rgb(68, 68, 68)" style="font-size:14px;font-family:微软雅黑;color:rgb(68,68,68);font-style:normal;text-align:left;font-weight:normal;"><tspan x="741.875" y="893.8"><tspan>RAM，ROM，磁盘，SSD 的几何形状和组织构造</tspan></tspan></text></g></g><g id="d5ea2a1e7ed17f814b06"><rect x="731.875" y="922" rx="5px" ry="5px" width="174" height="29" style="fill: #ffffff; stroke:rgb(187,187,187);stroke-width:1px;"></rect><g><text text-anchor="start" align="top" anchor="start" font-size="14px" font-weight="normal" fill="rgb(68, 68, 68)" style="font-size:14px;font-family:微软雅黑;color:rgb(68,68,68);font-style:normal;text-align:left;font-weight:normal;"><tspan x="741.875" y="942.8"><tspan>上述设备放置的层次结构</tspan></tspan></text></g></g><g id="4ba280986cbfadb90d62"><rect x="731.875" y="971" rx="5px" ry="5px" width="160" height="29" style="fill: #ffffff; stroke:rgb(187,187,187);stroke-width:1px;"></rect><g><text text-anchor="start" align="top" anchor="start" font-size="14px" font-weight="normal" fill="rgb(68, 68, 68)" style="font-size:14px;font-family:微软雅黑;color:rgb(68,68,68);font-style:normal;text-align:left;font-weight:normal;"><tspan x="741.875" y="991.8"><tspan>存储访问的时空局部性</tspan></tspan></text></g></g><g id="c650d0e4bd6b566a135f"><rect x="731.875" y="1020" rx="5px" ry="5px" width="146" height="29" style="fill: #ffffff; stroke:rgb(187,187,187);stroke-width:1px;"></rect><g><text text-anchor="start" align="top" anchor="start" font-size="14px" font-weight="normal" fill="rgb(68, 68, 68)" style="font-size:14px;font-family:微软雅黑;color:rgb(68,68,68);font-style:normal;text-align:left;font-weight:normal;"><tspan x="741.875" y="1040.8"><tspan>局部性启发性能优化</tspan></tspan></text></g></g><g id="2bf2297b767afaa34cc9"><rect x="254" y="44.640625" rx="5px" ry="5px" width="95" height="50" style="fill: #ffffff; stroke:rgb(187,187,187);stroke-width:1px;"></rect><g><text text-anchor="start" align="top" anchor="start" font-size="17px" font-weight="normal" fill="rgb(68, 68, 68)" style="font-size:17px;font-family:微软雅黑;color:rgb(68,68,68);font-style:normal;text-align:left;font-weight:normal;"><tspan x="265" y="77.040625"><tspan>第 0 部分</tspan></tspan></text></g></g><g id="02c08fd0569e513192b2"><rect x="376.53125" y="55.140625" rx="5px" ry="5px" width="105" height="29" style="fill: #ffffff; stroke:rgb(187,187,187);stroke-width:1px;"></rect><g><text text-anchor="start" align="top" anchor="start" font-size="14px" font-weight="normal" fill="rgb(68, 68, 68)" style="font-size:14px;font-family:微软雅黑;color:rgb(68,68,68);font-style:normal;text-align:left;font-weight:normal;"><tspan x="386.53125" y="75.940625"><tspan>第 1 章：概览 </tspan></tspan></text></g></g><g id="f94621fdb19fed0ae26b"><rect x="509.484375" y="30" rx="5px" ry="5px" width="165" height="29" style="fill: #ffffff; stroke:rgb(187,187,187);stroke-width:1px;"></rect><g><text text-anchor="start" align="top" anchor="start" font-size="14px" font-weight="normal" fill="rgb(68, 68, 68)" style="font-size:14px;font-family:微软雅黑;color:rgb(68,68,68);font-style:normal;text-align:left;font-weight:normal;"><tspan x="519.484375" y="50.8"><tspan>HelloWorld 的生命周期</tspan></tspan></text></g></g><g id="82cbf955135daecb5168"><rect x="509.484375" y="79" rx="5px" ry="5px" width="202" height="29" style="fill: #ffffff; stroke:rgb(187,187,187);stroke-width:1px;"></rect><g><text text-anchor="start" align="top" anchor="start" font-size="14px" font-weight="normal" fill="rgb(68, 68, 68)" style="font-size:14px;font-family:微软雅黑;color:rgb(68,68,68);font-style:normal;text-align:left;font-weight:normal;"><tspan x="519.484375" y="99.80000000000001"><tspan>计算机系统的主要概念和主题</tspan></tspan></text></g></g><g transform="translate(254, 1579)" id="sdjakdjak0"><g id="subline_1e377363a2ca5f1b60ef" transform="translate(0.5,-1.5)"><path id="line_bd66f5a354ffa1a75d06" d="M 265 407 L 283 407 L 283 141 A 4 4 0 0 1 287 137 L 292.53125 137" p="1e377363a2ca5f1b60ef" stroke="rgb(140,140,140)" fill="none" stroke-linecap="square" stroke-width="1"></path><path id="line_b7c15daa593e8d3c8dc6" d="M 438.53125 137 L 457 137 L 457 18 A 4 4 0 0 1 461 14 L 466.59375 14" p="bd66f5a354ffa1a75d06" stroke="rgb(140,140,140)" fill="none" stroke-linecap="square" stroke-width="1"></path><path id="line_f0c2e8f5376b9d39a504" d="M 438.53125 137 L 457 137 L 457 67 A 4 4 0 0 1 461 63 L 466.59375 63" p="bd66f5a354ffa1a75d06" stroke="rgb(140,140,140)" fill="none" stroke-linecap="square" stroke-width="1"></path><path id="line_68bb29632fc98e2b3079" d="M 438.53125 137 L 457 137 L 457 116 A 4 4 0 0 1 461 112 L 466.59375 112" p="bd66f5a354ffa1a75d06" stroke="rgb(140,140,140)" fill="none" stroke-linecap="square" stroke-width="1"></path><path id="line_153672b18f88be53e018" d="M 438.53125 137 L 457 137 L 457 157 A 4 4 0 0 0 461 161 L 466.59375 161" p="bd66f5a354ffa1a75d06" stroke="rgb(140,140,140)" fill="none" stroke-linecap="square" stroke-width="1"></path><path id="line_141d080ce4b26b4b56bb" d="M 438.53125 137 L 457 137 L 457 206 A 4 4 0 0 0 461 210 L 466.59375 210" p="bd66f5a354ffa1a75d06" stroke="rgb(140,140,140)" fill="none" stroke-linecap="square" stroke-width="1"></path><path id="line_1f2864605f520e98d0b1" d="M 438.53125 137 L 457 137 L 457 255 A 4 4 0 0 0 461 259 L 466.59375 259" p="bd66f5a354ffa1a75d06" stroke="rgb(140,140,140)" fill="none" stroke-linecap="square" stroke-width="1"></path><path id="line_c89c02f143fbd9ec0e7a" d="M 265 407 L 283 407 L 283 407 L 292.53125 407" p="1e377363a2ca5f1b60ef" stroke="rgb(140,140,140)" fill="none" stroke-linecap="square" stroke-width="1"></path><path id="line_89381ddb1f460d444b99" d="M 431.53125 407 L 450 407 L 450 312 A 4 4 0 0 1 454 308 L 459.09375 308" p="c89c02f143fbd9ec0e7a" stroke="rgb(140,140,140)" fill="none" stroke-linecap="square" stroke-width="1"></path><path id="line_e507c7e1ba6a841ef43f" d="M 431.53125 407 L 450 407 L 450 361 A 4 4 0 0 1 454 357 L 459.09375 357" p="c89c02f143fbd9ec0e7a" stroke="rgb(140,140,140)" fill="none" stroke-linecap="square" stroke-width="1"></path><path id="line_ec8722a03146835b423b" d="M 431.53125 407 L 450 407 L 450 407 L 459.09375 407" p="c89c02f143fbd9ec0e7a" stroke="rgb(140,140,140)" fill="none" stroke-linecap="square" stroke-width="1"></path><path id="line_80fa3d187f6b86998830" d="M 431.53125 407 L 450 407 L 450 451 A 4 4 0 0 0 454 455 L 459.09375 455" p="c89c02f143fbd9ec0e7a" stroke="rgb(140,140,140)" fill="none" stroke-linecap="square" stroke-width="1"></path><path id="line_de2000d3f8b8e31a3f55" d="M 431.53125 407 L 450 407 L 450 500 A 4 4 0 0 0 454 504 L 459.09375 504" p="c89c02f143fbd9ec0e7a" stroke="rgb(140,140,140)" fill="none" stroke-linecap="square" stroke-width="1"></path><path id="line_a7e3b465c702eb60f236" d="M 265 407 L 283 407 L 283 672 A 4 4 0 0 0 287 676 L 292.53125 676" p="1e377363a2ca5f1b60ef" stroke="rgb(140,140,140)" fill="none" stroke-linecap="square" stroke-width="1"></path><path id="line_f6aa0e41b86ea3d03557" d="M 433.53125 676 L 452 676 L 452 557 A 4 4 0 0 1 456 553 L 461.875 553" p="a7e3b465c702eb60f236" stroke="rgb(140,140,140)" fill="none" stroke-linecap="square" stroke-width="1"></path><path id="line_2cccb95f2987c5ed1355" d="M 433.53125 676 L 452 676 L 452 655 A 4 4 0 0 1 456 651 L 461.875 651" p="a7e3b465c702eb60f236" stroke="rgb(140,140,140)" fill="none" stroke-linecap="square" stroke-width="1"></path><path id="line_e7afc576d13f6d74d03e" d="M 551.875 651 L 570 651 L 570 606 A 4 4 0 0 1 574 602 L 579.875 602" p="2cccb95f2987c5ed1355" stroke="rgb(140,140,140)" fill="none" stroke-linecap="square" stroke-width="1"></path><path id="line_3222f194dfff5186f3ac" d="M 551.875 651 L 570 651 L 570 651 L 579.875 651" p="2cccb95f2987c5ed1355" stroke="rgb(140,140,140)" fill="none" stroke-linecap="square" stroke-width="1"></path><path id="line_3ce166fdee83f3ce70b1" d="M 551.875 651 L 570 651 L 570 696 A 4 4 0 0 0 574 700 L 579.875 700" p="2cccb95f2987c5ed1355" stroke="rgb(140,140,140)" fill="none" stroke-linecap="square" stroke-width="1"></path><path id="line_2607ab130dac7128fbf7" d="M 433.53125 676 L 452 676 L 452 745 A 4 4 0 0 0 456 749 L 461.875 749" p="a7e3b465c702eb60f236" stroke="rgb(140,140,140)" fill="none" stroke-linecap="square" stroke-width="1"></path><path id="line_434960f51d704f89e0cc" d="M 433.53125 676 L 452 676 L 452 794 A 4 4 0 0 0 456 798 L 461.875 798" p="a7e3b465c702eb60f236" stroke="rgb(140,140,140)" fill="none" stroke-linecap="square" stroke-width="1"></path></g><g transform="translate(0.5,-0.5)"></g><g class="svg-summary-con" transform="translate(0.5,-0.5)"></g><g class="svg-boundary-con" transform="translate(0.5,-0.5)"></g></g><g transform="translate(254, 1079)" id="sdjakdjak1"><g id="subline_e63ff8d0da2b4e008a31" transform="translate(0.5,-1.5)"><path id="line_eb80ff96ce9d2779ca21" d="M 248 235 L 266 235 L 266 43 A 4 4 0 0 1 270 39 L 275.53125 39" p="e63ff8d0da2b4e008a31" stroke="rgb(140,140,140)" fill="none" stroke-linecap="square" stroke-width="1"></path><path id="line_1aa493fa4e83f98374a3" d="M 382.53125 39 L 401 39 L 401 18 A 4 4 0 0 1 405 14 L 410.515625 14" p="eb80ff96ce9d2779ca21" stroke="rgb(140,140,140)" fill="none" stroke-linecap="square" stroke-width="1"></path><path id="line_0cf7b2808a6c659ea790" d="M 382.53125 39 L 401 39 L 401 59 A 4 4 0 0 0 405 63 L 410.515625 63" p="eb80ff96ce9d2779ca21" stroke="rgb(140,140,140)" fill="none" stroke-linecap="square" stroke-width="1"></path><path id="line_79e8f68485af05bc4fca" d="M 248 235 L 266 235 L 266 214 A 4 4 0 0 1 270 210 L 275.53125 210" p="e63ff8d0da2b4e008a31" stroke="rgb(140,140,140)" fill="none" stroke-linecap="square" stroke-width="1"></path><path id="line_812cb5da05d22e823f05" d="M 425.53125 210 L 444 210 L 444 116 A 4 4 0 0 1 448 112 L 453.265625 112" p="79e8f68485af05bc4fca" stroke="rgb(140,140,140)" fill="none" stroke-linecap="square" stroke-width="1"></path><path id="line_89c51a39feabb389c56c" d="M 425.53125 210 L 444 210 L 444 165 A 4 4 0 0 1 448 161 L 453.265625 161" p="79e8f68485af05bc4fca" stroke="rgb(140,140,140)" fill="none" stroke-linecap="square" stroke-width="1"></path><path id="line_11c4455a73c9512a4aaa" d="M 425.53125 210 L 444 210 L 444 210 L 453.265625 210" p="79e8f68485af05bc4fca" stroke="rgb(140,140,140)" fill="none" stroke-linecap="square" stroke-width="1"></path><path id="line_8078ed2e990dc7779a12" d="M 425.53125 210 L 444 210 L 444 255 A 4 4 0 0 0 448 259 L 453.265625 259" p="79e8f68485af05bc4fca" stroke="rgb(140,140,140)" fill="none" stroke-linecap="square" stroke-width="1"></path><path id="line_66a4c16ee3b54f4b3854" d="M 425.53125 210 L 444 210 L 444 304 A 4 4 0 0 0 448 308 L 453.265625 308" p="79e8f68485af05bc4fca" stroke="rgb(140,140,140)" fill="none" stroke-linecap="square" stroke-width="1"></path><path id="line_578bbc605a854c1ee550" d="M 248 235 L 266 235 L 266 402 A 4 4 0 0 0 270 406 L 275.53125 406" p="e63ff8d0da2b4e008a31" stroke="rgb(140,140,140)" fill="none" stroke-linecap="square" stroke-width="1"></path><path id="line_7b21c5db11c4e0ae95d5" d="M 411.53125 406 L 430 406 L 430 361 A 4 4 0 0 1 434 357 L 439.265625 357" p="578bbc605a854c1ee550" stroke="rgb(140,140,140)" fill="none" stroke-linecap="square" stroke-width="1"></path><path id="line_011dc68ed869874241a7" d="M 411.53125 406 L 430 406 L 430 406 L 439.265625 406" p="578bbc605a854c1ee550" stroke="rgb(140,140,140)" fill="none" stroke-linecap="square" stroke-width="1"></path><path id="line_b241f81c7a0cd26f4d82" d="M 411.53125 406 L 430 406 L 430 451 A 4 4 0 0 0 434 455 L 439.265625 455" p="578bbc605a854c1ee550" stroke="rgb(140,140,140)" fill="none" stroke-linecap="square" stroke-width="1"></path></g><g transform="translate(0.5,-0.5)"></g><g class="svg-summary-con" transform="translate(0.5,-0.5)"></g><g class="svg-boundary-con" transform="translate(0.5,-0.5)"></g></g><g transform="translate(254, 138)" id="sdjakdjak2"><g id="subline_6ac359b05cbde715ab88" transform="translate(0.5,-1.5)"><path id="line_bb717a45ce4097d683a7" d="M 244 456 L 262 456 L 262 92 A 4 4 0 0 1 266 88 L 272.140625 88" p="6ac359b05cbde715ab88" stroke="rgb(140,140,140)" fill="none" stroke-linecap="square" stroke-width="1"></path><path id="line_e017b32c75e51f960c08" d="M 464.140625 88 L 483 88 L 483 18 A 4 4 0 0 1 487 14 L 491.875 14" p="bb717a45ce4097d683a7" stroke="rgb(140,140,140)" fill="none" stroke-linecap="square" stroke-width="1"></path><path id="line_4747d0c4024d07d1034b" d="M 464.140625 88 L 483 88 L 483 67 A 4 4 0 0 1 487 63 L 491.875 63" p="bb717a45ce4097d683a7" stroke="rgb(140,140,140)" fill="none" stroke-linecap="square" stroke-width="1"></path><path id="line_625f8a47ecc433174ce9" d="M 464.140625 88 L 483 88 L 483 108 A 4 4 0 0 0 487 112 L 491.875 112" p="bb717a45ce4097d683a7" stroke="rgb(140,140,140)" fill="none" stroke-linecap="square" stroke-width="1"></path><path id="line_8b63e23a1ed38bd6f28c" d="M 464.140625 88 L 483 88 L 483 157 A 4 4 0 0 0 487 161 L 491.875 161" p="bb717a45ce4097d683a7" stroke="rgb(140,140,140)" fill="none" stroke-linecap="square" stroke-width="1"></path><path id="line_6e74e8a8bd1459836d6e" d="M 244 456 L 262 456 L 262 337 A 4 4 0 0 1 266 333 L 272.140625 333" p="6ac359b05cbde715ab88" stroke="rgb(140,140,140)" fill="none" stroke-linecap="square" stroke-width="1"></path><path id="line_41d772b11329b6389d53" d="M 464.140625 333 L 483 333 L 483 214 A 4 4 0 0 1 487 210 L 491.875 210" p="6e74e8a8bd1459836d6e" stroke="rgb(140,140,140)" fill="none" stroke-linecap="square" stroke-width="1"></path><path id="line_1f412e2bc36f32f61b1d" d="M 464.140625 333 L 483 333 L 483 263 A 4 4 0 0 1 487 259 L 491.875 259" p="6e74e8a8bd1459836d6e" stroke="rgb(140,140,140)" fill="none" stroke-linecap="square" stroke-width="1"></path><path id="line_79ed6f4b4d6b769a8d08" d="M 464.140625 333 L 483 333 L 483 312 A 4 4 0 0 1 487 308 L 491.875 308" p="6e74e8a8bd1459836d6e" stroke="rgb(140,140,140)" fill="none" stroke-linecap="square" stroke-width="1"></path><path id="line_3f2cb4e19ff41744d7f4" d="M 464.140625 333 L 483 333 L 483 353 A 4 4 0 0 0 487 357 L 491.875 357" p="6e74e8a8bd1459836d6e" stroke="rgb(140,140,140)" fill="none" stroke-linecap="square" stroke-width="1"></path><path id="line_1b8be8f1c6eec629f9b2" d="M 464.140625 333 L 483 333 L 483 402 A 4 4 0 0 0 487 406 L 491.875 406" p="6e74e8a8bd1459836d6e" stroke="rgb(140,140,140)" fill="none" stroke-linecap="square" stroke-width="1"></path><path id="line_ee11a3d4b5a4794c9d2c" d="M 464.140625 333 L 483 333 L 483 451 A 4 4 0 0 0 487 455 L 491.875 455" p="6e74e8a8bd1459836d6e" stroke="rgb(140,140,140)" fill="none" stroke-linecap="square" stroke-width="1"></path><path id="line_4425af3d05e62c9e972c" d="M 244 456 L 262 456 L 262 549 A 4 4 0 0 0 266 553 L 272.140625 553" p="6ac359b05cbde715ab88" stroke="rgb(140,140,140)" fill="none" stroke-linecap="square" stroke-width="1"></path><path id="line_919acbc1199144c872b4" d="M 450.140625 553 L 469 553 L 469 508 A 4 4 0 0 1 473 504 L 477.875 504" p="4425af3d05e62c9e972c" stroke="rgb(140,140,140)" fill="none" stroke-linecap="square" stroke-width="1"></path><path id="line_c3d6ca5a852dd2476143" d="M 450.140625 553 L 469 553 L 469 553 L 477.875 553" p="4425af3d05e62c9e972c" stroke="rgb(140,140,140)" fill="none" stroke-linecap="square" stroke-width="1"></path><path id="line_0625336bd4c303afb593" d="M 450.140625 553 L 469 553 L 469 598 A 4 4 0 0 0 473 602 L 477.875 602" p="4425af3d05e62c9e972c" stroke="rgb(140,140,140)" fill="none" stroke-linecap="square" stroke-width="1"></path><path id="line_d12eb59e52bc1943d364" d="M 244 456 L 262 456 L 262 672 A 4 4 0 0 0 266 676 L 272.140625 676" p="6ac359b05cbde715ab88" stroke="rgb(140,140,140)" fill="none" stroke-linecap="square" stroke-width="1"></path><path id="line_b5d88ee57e40ab020311" d="M 436.140625 676 L 455 676 L 455 655 A 4 4 0 0 1 459 651 L 463.875 651" p="d12eb59e52bc1943d364" stroke="rgb(140,140,140)" fill="none" stroke-linecap="square" stroke-width="1"></path><path id="line_8f6d46705a384ef1ecf4" d="M 436.140625 676 L 455 676 L 455 696 A 4 4 0 0 0 459 700 L 463.875 700" p="d12eb59e52bc1943d364" stroke="rgb(140,140,140)" fill="none" stroke-linecap="square" stroke-width="1"></path><path id="line_ca8741211f33d828947b" d="M 244 456 L 262 456 L 262 819 A 4 4 0 0 0 266 823 L 272.140625 823" p="6ac359b05cbde715ab88" stroke="rgb(140,140,140)" fill="none" stroke-linecap="square" stroke-width="1"></path><path id="line_04624088d9410275f933" d="M 450.140625 823 L 469 823 L 469 753 A 4 4 0 0 1 473 749 L 477.875 749" p="ca8741211f33d828947b" stroke="rgb(140,140,140)" fill="none" stroke-linecap="square" stroke-width="1"></path><path id="line_d5ea2a1e7ed17f814b06" d="M 450.140625 823 L 469 823 L 469 802 A 4 4 0 0 1 473 798 L 477.875 798" p="ca8741211f33d828947b" stroke="rgb(140,140,140)" fill="none" stroke-linecap="square" stroke-width="1"></path><path id="line_4ba280986cbfadb90d62" d="M 450.140625 823 L 469 823 L 469 843 A 4 4 0 0 0 473 847 L 477.875 847" p="ca8741211f33d828947b" stroke="rgb(140,140,140)" fill="none" stroke-linecap="square" stroke-width="1"></path><path id="line_c650d0e4bd6b566a135f" d="M 450.140625 823 L 469 823 L 469 892 A 4 4 0 0 0 473 896 L 477.875 896" p="ca8741211f33d828947b" stroke="rgb(140,140,140)" fill="none" stroke-linecap="square" stroke-width="1"></path></g><g transform="translate(0.5,-0.5)"></g><g class="svg-summary-con" transform="translate(0.5,-0.5)"></g><g class="svg-boundary-con" transform="translate(0.5,-0.5)"></g></g><g transform="translate(254, 30)" id="sdjakdjak3"><g id="subline_2bf2297b767afaa34cc9" transform="translate(0.5,-1.5)"><path id="line_02c08fd0569e513192b2" d="M 95 39 L 113 39 L 113 39 L 122.53125 39" p="2bf2297b767afaa34cc9" stroke="rgb(140,140,140)" fill="none" stroke-linecap="square" stroke-width="1"></path><path id="line_f94621fdb19fed0ae26b" d="M 227.53125 39 L 246 39 L 246 18 A 4 4 0 0 1 250 14 L 255.484375 14" p="02c08fd0569e513192b2" stroke="rgb(140,140,140)" fill="none" stroke-linecap="square" stroke-width="1"></path><path id="line_82cbf955135daecb5168" d="M 227.53125 39 L 246 39 L 246 59 A 4 4 0 0 0 250 63 L 255.484375 63" p="02c08fd0569e513192b2" stroke="rgb(140,140,140)" fill="none" stroke-linecap="square" stroke-width="1"></path></g><g transform="translate(0.5,-0.5)"></g><g class="svg-summary-con" transform="translate(0.5,-0.5)"></g><g class="svg-boundary-con" transform="translate(0.5,-0.5)"></g></g><g transform="translate(30, 1172.5)" id="sdjakdjak4"><g id="subline_root" transform="translate(0.5,-1.5)"></g><g transform="translate(0.5,-0.5)"></g><g class="svg-summary-con" transform="translate(0.5,-0.5)"></g><g class="svg-boundary-con" transform="translate(0.5,-0.5)"></g></g><g id="root"><rect x="30" y="1172.5" rx="5px" ry="5px" width="144" height="77" style="fill: #50C28B; stroke:none;"></rect><g><text text-anchor="start" align="top" anchor="start" font-size="30px" font-weight="normal" fill="rgb(255, 255, 255)" style="font-size:30px;font-family:微软雅黑;color:#fff;font-style:normal;text-align:left;font-weight:normal;"><tspan x="42" y="1223.5"><tspan>本书概述</tspan></tspan></text></g></g></svg>